<?xml version="1.0" encoding="utf-8"?>
<!-- Generator: Adobe Illustrator 21.1.0, SVG Export Plug-In . SVG Version: 6.00 Build 0)  -->
<svg version="1.1" id="Layer_1" xmlns="http://www.w3.org/2000/svg" xmlns:xlink="http://www.w3.org/1999/xlink" x="0px" y="0px"
	 viewBox="0 0 20.3 21" style="enable-background:new 0 0 20.3 21;" xml:space="preserve">
<style type="text/css">
	.st0{fill:#BF637B;}
</style>
<g>
	<path class="st0" d="M10.9,10.6c0.1,0,0.3-0.1,0.4-0.1c-0.3-0.6-0.5-1.1-0.8-1.7c-5.2,1.6-10.2,1.4-10.4,1.4c0,0.1,0,0.2,0,0.3
		c0,2.6,1,5,2.6,6.8c0,0,0,0,0,0S5.5,12.3,10.9,10.6z"/>
	<path class="st0" d="M9.7,7.2C7.9,4.1,6,1.5,5.9,1.4C3.1,2.7,1,5.3,0.3,8.4C0.6,8.4,4.8,8.5,9.7,7.2z"/>
	<path class="st0" d="M16.9,2.9c-1.8-1.6-4.1-2.5-6.7-2.5c-0.8,0-1.6,0.1-2.4,0.3C8,0.9,9.9,3.4,11.6,6.6C15.4,5.1,16.9,3,16.9,2.9z
		"/>
	<path d="M7.8,0.7C7.8,0.7,7.8,0.7,7.8,0.7C7.8,0.7,7.8,0.7,7.8,0.7L7.8,0.7z"/>
	<path d="M4,18.5L4,18.5c-0.1-0.1-0.2-0.1-0.2-0.2C3.9,18.4,4,18.5,4,18.5z"/>
	<path class="st0" d="M12.4,8.1c0.2,0.5,0.5,1,0.7,1.5c0.1,0.2,0.1,0.4,0.2,0.5c3.5-0.4,6.9,0.3,7,0.3c0-2.4-0.9-4.6-2.3-6.3
		C18,4.1,16.4,6.5,12.4,8.1z"/>
	<path class="st0" d="M11.9,12.2C6,14.2,4,18.4,4,18.5c1.7,1.3,3.9,2.1,6.2,2.1c1.4,0,2.7-0.3,3.9-0.8C14,18.9,13.4,15.8,11.9,12.2
		C12,12.1,12,12.1,11.9,12.2z"/>
	<path class="st0" d="M13.9,11.7c1.3,3.6,1.9,6.6,2,7.2c2.3-1.5,3.9-4,4.3-6.8C20,12,17.2,11.1,13.9,11.7z"/>
</g>
</svg>
